<?xml version="1.0" standalone="no"?>
<!DOCTYPE svg PUBLIC "-//W3C//DTD SVG 20010904//EN"
 "http://www.w3.org/TR/2001/REC-SVG-20010904/DTD/svg10.dtd">
<svg version="1.0" xmlns="http://www.w3.org/2000/svg"
 width="325.000000pt" height="325.000000pt" viewBox="0 0 325.000000 325.000000"
 preserveAspectRatio="xMidYMid meet">
<metadata>
Created by potrace 1.11, written by Peter Selinger 2001-2013
</metadata>
<g transform="translate(0.000000,325.000000) scale(0.100000,-0.100000)"
fill="#000000" stroke="none">
<path d="M1314 3237 c-17 -7 -53 -35 -80 -63 -47 -48 -162 -114 -244 -139
-183 -56 -379 -139 -449 -192 -48 -36 -51 -39 -92 -103 -74 -112 -111 -207
-123 -316 -10 -87 -29 -172 -62 -272 -19 -57 -34 -106 -34 -108 0 -5 154 -62
200 -74 25 -6 56 -15 70 -21 26 -10 44 -14 125 -29 97 -18 107 -19 132 -9 24
9 25 11 19 90 -3 44 -8 84 -11 90 -4 5 -2 9 3 9 9 0 40 -71 72 -170 25 -74 25
-89 16 -490 -11 -477 -20 -732 -31 -915 -2 -44 -7 -147 -10 -230 -4 -132 -9
-183 -20 -246 -3 -13 7 -16 53 -16 96 -1 430 -13 557 -20 239 -13 859 -6 1045
12 118 12 122 13 115 43 -7 36 -11 58 -20 112 -3 25 -9 59 -12 75 -2 17 -6 53
-8 80 -7 102 -16 181 -26 233 -22 109 -29 226 -34 577 -2 171 -7 326 -9 345
-4 33 -7 60 -22 203 -10 104 -11 290 -2 326 14 52 59 151 67 147 4 -3 8 -37
10 -78 3 -68 8 -141 10 -144 1 -1 28 7 62 17 33 10 70 21 82 23 12 3 81 19
152 37 72 17 145 32 162 32 31 0 32 2 27 31 -4 17 -8 40 -10 51 -1 11 -5 29
-7 40 -3 11 -8 40 -12 65 -43 265 -146 535 -243 636 -18 19 -155 79 -201 88
-9 2 -23 6 -31 10 -8 3 -95 33 -192 66 -211 71 -263 96 -319 152 l-42 43 -81
-4 c-146 -7 -330 -6 -391 3 -102 14 -129 15 -161 3z"/>
</g>
</svg>
